<?xml version="1.0" encoding="utf-8"?>
<!-- Generator: Adobe Illustrator 16.0.4, SVG Export Plug-In . SVG Version: 6.00 Build 0)  -->
<!DOCTYPE svg PUBLIC "-//W3C//DTD SVG 1.1//EN" "http://www.w3.org/Graphics/SVG/1.1/DTD/svg11.dtd">
<svg version="1.1" id="Layer_1" xmlns="http://www.w3.org/2000/svg" xmlns:xlink="http://www.w3.org/1999/xlink" x="0px" y="0px"
	 width="205.151px" height="140.317px" viewBox="0 0 205.151 140.317" enable-background="new 0 0 205.151 140.317"
	 xml:space="preserve">
<g>
	<g>
		<polygon fill="#E5E5E5" points="121.087,86.94 141.365,69.386 108.373,52.124 89.082,69.885 121.055,86.948 		"/>
		<polygon fill="#BFBFBF" points="144.129,67.446 164.121,63.596 130.093,48.608 112.926,51.12 		"/>
		<polygon fill="#E5E5E5" points="86.41,68.267 105.549,50.646 80.926,37.764 58.692,53.666 86.159,68.325 		"/>
		<polygon fill="#BFBFBF" points="168.949,65.722 148.398,69.679 180.418,86.431 180.47,86.385 205.151,81.667 		"/>
		<polygon fill="#E5E5E5" points="67.904,119.907 100.5,140.317 129.762,115.819 96.426,96.771 		"/>
		<polygon fill="#BFBFBF" points="81.715,69.353 53.877,54.497 31.895,56.44 62.334,73.834 		"/>
		<polygon fill="#BFBFBF" points="100.108,95.42 133.324,114.399 154.133,108.001 120.672,90.144 		"/>
		<polygon fill="#E5E5E5" points="26.658,56.903 26.5,56.917 -1.152,76.667 31.545,97.142 58.766,75.25 		"/>
		<polygon fill="#BFBFBF" points="124.926,46.332 101.5,36.015 85.771,36.913 108.398,48.751 		"/>
		<polygon fill="#BFBFBF" points="66.17,76.026 96.367,93.282 116.753,88.052 85.74,71.501 		"/>
		<polygon fill="#E5E5E5" points="123.904,88.469 157.826,106.571 178.024,88.565 144.223,70.88 		"/>
		<polygon fill="#E5E5E5" points="61.865,77.022 61.141,77.188 34.236,98.825 65.217,118.226 93.633,95.175 		"/>
	</g>
	<path fill="#C11010" d="M99.16,0C83.012,0,69.921,13.091,69.921,29.238C69.921,50.443,99.16,82.5,99.16,82.5
		s29.236-32.057,29.236-53.262C128.396,13.091,115.307,0,99.16,0z M99.16,41.619c-7.129,0-12.908-5.779-12.908-12.908
		c0-7.127,5.779-12.906,12.908-12.906c7.128,0,12.906,5.779,12.906,12.906C112.066,35.84,106.288,41.619,99.16,41.619z"/>
</g>
</svg>
